# AST/ASF file generated using VICON BodyLanguage
# -----------------------------------------------
:version 1.10
:name VICON
:units
  mass 1.0
  length 0.45
  angle deg
:documentation
   .ast/.asf automatically generated from VICON data using
   VICON BodyBuilder and BodyLanguage model FoxedUp or BRILLIANT.MOD
:root
   order TX TY TZ RX RY RZ
   axis XYZ
   position 0 0 0  
   orientation 0 0 0 
:bonedata
  begin
     id 1 
     name lhipjoint
     direction 0.611804 -0.747784 0.257906 
     length 2.29243 
     axis 0 0 0  XYZ
  end
  begin
     id 2 
     name lfemur
     direction 0.34202 -0.939693 0  
     length 7.31159  
     axis 0 0 20  XYZ
    dof rx ry rz
    limits (-160.0 20.0)
           (-70.0 70.0)
           (-60.0 70.0)
  end
  begin
     id 3 
     name ltibia
     direction 0.34202 -0.939693 0   
     length 7.33391   
     axis 0 0 20   XYZ
    dof rx
    limits (-10.0 170.0)
  end
  begin
     id 4 
     name lfoot
     direction 0.122263 -0.335914 0.933924   
     length 1.76083   
     axis -90 7.62852e-016 20   XYZ
    dof rx rz
    limits (-45.0 90.0)
           (-70.0 20.0)
  end
  begin
     id 5 
     name ltoes
     direction 1.53533e-011 -4.2177e-011 1   
     length 0.879206   
     axis -90 7.62852e-016 20   XYZ
    dof rx
    limits (-90.0 20.0)
  end
  begin
     id 6 
     name rhipjoint
     direction -0.646469 -0.721248 0.248754   
     length 2.37677  
     axis 0 0 0  XYZ 
  end
  begin
     id 7 
     name rfemur
     direction -0.34202 -0.939693 0   
     length 7.18623   
     axis 0 0 -20   XYZ
    dof rx ry rz
    limits (-160.0 20.0)
           (-70.0 70.0)
           (-70.0 60.0)
  end
  begin
     id 8 
     name rtibia
     direction -0.34202 -0.939693 0   
     length 7.36567   
     axis 0 0 -20   XYZ
    dof rx
    limits (-10.0 170.0)
 end
 begin
     id 9 
     name rfoot
     direction -0.126681 -0.348054 0.928876   
     length 1.71902  
     axis -90 -7.62852e-016 -20   XYZ
    dof rx rz
    limits (-45.0 90.0)
           (-20.0 70.0)
  end
  begin
     id 10 
     name rtoes
     direction -1.53551e-011 -4.21898e-011 1   
     length 0.857792   
     axis -90 -7.62852e-016 -20   XYZ
    dof rx
    limits (-90.0 20.0)
  end
  begin
     id 11 
     name lowerback
     direction 0.0106509 0.999778 0.0181844   
     length 2.07668   
     axis 0 0 0   XYZ
    dof rx ry rz
    limits (-20.0 45.0)
           (-30.0 30.0)
           (-30.0 30.0)
  end
  begin
     id 12 
     name upperback
     direction -0.00456018 0.999989 -0.000590935   
     length 2.08011   
     axis 0 0 0   XYZ
    dof rx ry rz
    limits (-20.0 45.0)
           (-30.0 30.0)
           (-30.0 30.0)
  end
  begin
     id 13 
     name thorax
     direction -0.00910382 0.999916 -0.00923765   
     length 2.07397   
     axis 0 0 0   XYZ
    dof rx ry rz
    limits (-20.0 45.0)
           (-30.0 30.0)
           (-30.0 30.0)
  end
  begin
     id 14 
     name lowerneck
     direction 0.00171967 0.99778 0.0665733   
     length 1.67556   
     axis 0 0 0   XYZ
    dof rx ry rz
    limits (-20.0 45.0)
           (-30.0 30.0)
           (-30.0 30.0)
  end
  begin
     id 15 
     name upperneck
     direction -0.0143166 0.991302 -0.130828   
     length 1.68462   
     axis 0 0 0   XYZ
    dof rx ry rz
    limits (-20.0 45.0)
           (-30.0 30.0)
           (-30.0 30.0)
  end
  begin
     id 16
     name head
     direction -0.00606378 0.998665 -0.0512995  
     length 1.69269  
     axis 0 0 0   XYZ
    dof rx ry rz
    limits (-20.0 45.0)
           (-30.0 30.0)
           (-30.0 30.0)
  end
  begin
     id 17 
     name lclavicle
     direction 0.9638 0.179341 0.197297  
     length 4.12888  
     axis 0 0 0   XYZ
    dof ry rz
    limits (-20.0 10.0)
           (0.0 20.0)
  end
  begin
     id 18 
     name lhumerus
     direction 1 -4.48972e-011 -2.47351e-027   
     length 5.01834   
     axis -180 -30 -90   XYZ
    dof rx ry rz
    limits (-60.0 90.0)
           (-90.0 90.0)
           (-90.0 90.0)
  end
  begin
     id 19
     name lradius
     direction 1 -4.48965e-011 1.51591e-026   
     length 3.4869   
     axis -180 -30 -90   XYZ
    dof rx
    limits (-10.0 170.0)
  end
  begin
     id 20
     name lwrist
     direction 1 -4.48957e-011 2.70032e-026   
     length 1.74345   
     axis -1.81515e-014 90 90   XYZ
    dof ry
    limits (-180.0 0.0)
 end
  begin
     id 21 
     name lhand
     direction 1 -4.48951e-011 5.40064e-026   
     length 0.76799   
     axis -3.44607e-014 90 90   XYZ
    dof rx rz
    limits (-90.0 90.0)
           (-45.0 45.0)
  end
  begin
     id 22 
     name lfingers
     direction 1 -4.48971e-011 1.08013e-025   
     length 0.619174   
     axis -6.89214e-014 90 90   XYZ
    dof rx
    limits (0.0 90.0)
  end
  begin
     id 23
     name lthumb
     direction 0.707107 -6.34931e-011 0.707107   
     length 0.889013   
     axis -90 45 2.85299e-015   XYZ
    dof rx rz
    limits (-45.0 45.0)
           (-45.0 45.0)
  end
  begin
     id 24 
     name rclavicle
     direction -0.961409 0.252588 0.109054   
     length 4.04305  
     axis 0 0 0   XYZ 
    dof ry rz
    limits (-10.0 20.0)
           (-20.0 0.0)
  end
  begin
     id 25 
     name rhumerus
     direction -1 -4.4897e-011 1.33872e-017  
     length 4.70164   
     axis -180 30 90   XYZ
    dof rx ry rz
    limits (-90.0 60.0)
           (-90.0 90.0)
           (-90.0 90.0)
  end
  begin
     id 26 
     name rradius
     direction -1 -4.48954e-011 1.83844e-026   
     length 3.49911   
     axis -180 30 90   XYZ
    dof rx
    limits (-10.0 170.0)
  end
  begin
     id 27 
     name rwrist
     direction -1 -4.49008e-011 2.70032e-026   
     length 1.74955   
     axis -1.81515e-014 -90 -90   XYZ
    dof ry
    limits (-180.0 0.0)
  end
  begin
     id 28
     name rhand
     direction -1 -4.48916e-011 5.40064e-026   
     length 0.739335   
     axis -3.44607e-014 -90 -90   XYZ
    dof rx rz
    limits (-90.0 90.0)
           (-45.0 45.0)
  end
  begin
     id 29
     name rfingers
     direction -1 -4.48987e-011 1.08013e-025   
     length 0.596071   
     axis -6.89214e-014 -90 -90   XYZ
    dof rx
    limits (0.0 90.0)
  end
  begin
     id 30
     name rthumb
     direction -0.707107 -6.34935e-011 0.707107   
     length 0.855843   
     axis -90 -45 -2.85299e-015   XYZ
    dof rx rz
    limits (-45.0 45.0)
           (-45.0 45.0)
  end
:hierarchy
  begin
    root lhipjoint rhipjoint lowerback
    lhipjoint lfemur
    lfemur ltibia
    ltibia lfoot
    lfoot ltoes
    rhipjoint rfemur
    rfemur rtibia
    rtibia rfoot
    rfoot rtoes
    lowerback upperback
    upperback thorax
    thorax lowerneck lclavicle rclavicle
    lowerneck upperneck
    upperneck head
    lclavicle lhumerus
    lhumerus lradius
    lradius lwrist
    lwrist lhand lthumb
    lhand lfingers
    rclavicle rhumerus
    rhumerus rradius
    rradius rwrist
    rwrist rhand rthumb
    rhand rfingers
  end

#!OML:ASF I:\salsa\salsa 7_09\Patient 1\Session 1\dancermale.ASF
:FULLY-SPECIFIED
:DEGREES
375
root -2.15916 17.131 -0.76172 378.806 112.549 361.497
lowerback -22.5534 -1.99087 9.46232
upperback -1.39114 -4.91445 0.806786
thorax 10.3439 -1.80551 -5.96908
lowerneck -6.58158 -4.8976 -0.51656
upperneck 14.0255 -6.24767 -1.21127
head 5.27989 -3.09347 -0.688359
rclavicle -2.35063e-014 4.77083e-015
rhumerus -52.3921 19.339 -117.105
rradius 93.7155
rwrist 7.61448
rhand -26.075 8.27079
rfingers 7.12502
rthumb 0.473342 -21.7084
lclavicle -2.35063e-014 4.77083e-015
lhumerus -45.9289 -36.8703 114.05
lradius 103.942
lwrist 31.4712
lhand -27.829 47.296
lfingers 7.12502
lthumb -1.22078 77.2723
rfemur -29.1697 -23.4923 19.347
rtibia 50.484
rfoot -14.2561 -18.3204
rtoes 18.8003
lfemur -34.9015 -8.24223 -17.817
ltibia 37.3051
lfoot -23.6977 -5.59338
ltoes -12.8188
376
root -2.15879 17.2296 -0.782672 373.354 108.36 359.256
lowerback -17.242 -1.13654 8.3058
upperback -0.732917 -3.05232 0.153238
thorax 8.46564 -1.10232 -5.27207
lowerneck -6.68214 -4.91369 -0.580146
upperneck 14.1551 -6.28792 -1.01107
head 5.34602 -3.10149 -0.624279
rclavicle -4.64659e-014 5.1684e-014
rhumerus -53.9234 18.5877 -116.678
rradius 94.7155
rwrist 7.37712
rhand -25.9122 7.61765
rfingers 7.12502
rthumb 0.630522 -22.3612
lclavicle -4.64659e-014 5.1684e-014
lhumerus -44.368 -39.0575 114.597
lradius 104.724
lwrist 32.3313
lhand -28.4873 46.8024
lfingers 7.12502
lthumb -1.85654 76.7741
rfemur -27.3811 -19.9553 17.5448
rtibia 48.9081
rfoot -15.6906 -18.4922
rtoes 16.9847
lfemur -28.3782 -5.67683 -19.9433
ltibia 33.008
lfoot -22.0043 -4.3331
ltoes -13.2083
377
root -2.20775 17.3328 -0.788829 369.737 106.557 357.125
lowerback -13.4815 -0.856032 7.65472
upperback -0.636923 -2.23171 -0.250225
thorax 6.59459 -0.82924 -5.0117
lowerneck -6.81441 -4.91806 -0.413168
upperneck 14.2787 -6.31418 -1.00327
head 5.40149 -3.10389 -0.656148
rclavicle 8.94531e-016 5.1684e-015
rhumerus -55.3797 18.039 -116.157
rradius 95.7136
rwrist 7.18326
rhand -25.6748 7.27658
rfingers 7.12502
rthumb 0.859824 -22.7014
lclavicle 8.94531e-016 5.1684e-015
lhumerus -42.8745 -41.0837 115.018
lradius 105.447
lwrist 33.1169
lhand -29.3347 46.5316
lfingers 7.12502
lthumb -2.67495 76.4945
rfemur -27.3283 -17.7229 17.3215
rtibia 46.7105
rfoot -16.9689 -19.4965
rtoes 15.226
lfemur -25.1981 -4.93192 -20.7649
ltibia 30.3404
lfoot -20.4658 -3.1891
ltoes -12.9691
378
root -2.26929 17.4425 -0.783798 368.158 105.311 356.304
lowerback -10.3765 -0.70098 7.40095
upperback -0.848752 -1.72121 -0.455991
thorax 4.7025 -0.679024 -4.89498
lowerneck -6.97443 -4.89374 -0.298325
upperneck 14.5205 -6.28495 -1.05079
head 5.49872 -3.08394 -0.695966
rclavicle -5.86415e-015 1.51076e-014
rhumerus -56.9562 17.7985 -115.676
rradius 96.6523
rwrist 6.83175
rhand -25.8528 7.44537
rfingers 7.12502
rthumb 0.687892 -22.5333
lclavicle -5.86415e-015 1.51076e-014
lhumerus -41.3888 -42.7428 115.24
lradius 106.082
lwrist 33.0765
lhand -29.0256 46.3834
lfingers 7.12502
lthumb -2.37643 76.3499
rfemur -27.8013 -15.3592 17.8712
rtibia 43.9167
rfoot -18.073 -20.5284
rtoes 12.7376
lfemur -23.4466 -4.22281 -20.8488
ltibia 28.389
lfoot -19.0548 -2.26621
ltoes -11.5712
379
root -2.37811 17.5434 -0.770343 367.13 103.373 355.381
lowerback -7.1473 -0.344699 7.13609
upperback -1.449 -0.934006 -0.679507
thorax 2.37645 -0.402643 -4.80581
lowerneck -6.98729 -4.80261 -0.156375
upperneck 14.672 -6.1772 -1.04355
head 5.54411 -3.02093 -0.712144
rclavicle 1.3418e-014 1.11319e-014
rhumerus -58.5772 17.611 -115.162
rradius 97.7944
rwrist 6.68769
rhand -26.2973 7.57983
rfingers 7.12502
rthumb 0.258598 -22.3998
lclavicle 1.3418e-014 1.11319e-014
lhumerus -40.0672 -44.186 115.458
lradius 106.805
lwrist 32.9629
lhand -28.4886 46.0142
lfingers 7.12502
lthumb -1.85784 75.9858
rfemur -29.3058 -11.8896 18.345
rtibia 41.2364
rfoot -18.96 -21.0848
rtoes 9.36403
lfemur -23.0138 -2.89918 -20.8422
ltibia 27.1379
lfoot -17.7942 -1.16856
ltoes -10.5915
380
root -2.29604 17.6042 -0.790468 367.256 103.579 355.533
lowerback -7.09779 -0.483385 7.08886
upperback -1.45457 -1.10939 -0.767054
thorax 2.31842 -0.492993 -4.88483
lowerneck -7.03956 -4.81257 -0.389813
upperneck 14.889 -6.20857 -0.700296
head 5.64008 -3.02129 -0.575763
rclavicle -2.95692e-015 3.97569e-015
rhumerus -60.0219 17.3273 -114.434
rradius 99.2048
rwrist 6.69288
rhand -26.3542 7.55321
rfingers 7.12502
rthumb 0.203673 -22.4264
lclavicle -2.95692e-015 3.97569e-015
lhumerus -38.9738 -45.7035 115.812
lradius 107.66
lwrist 33.1888
lhand -28.3287 45.6359
lfingers 7.12502
lthumb -1.70333 75.6089
rfemur -28.2263 -10.5149 18.7666
rtibia 36.004
rfoot -19.165 -20.4195
rtoes 4.05913
lfemur -21.5748 -1.90712 -20.861
ltibia 25.0287
lfoot -17.1637 -2.19275
ltoes -9.36144
381
root -2.21168 17.6518 -0.802043 368.067 103.626 356.232
lowerback -7.29448 -0.51107 7.09631
upperback -1.48769 -1.15813 -0.808135
thorax 2.38586 -0.514829 -4.94002
lowerneck -7.01063 -4.75712 -0.316363
upperneck 15.0708 -6.14808 -0.634221
head 5.69188 -2.97954 -0.564964
rclavicle 1.28465e-014 -2.34566e-014
rhumerus -61.3516 17.1164 -113.572
rradius 100.455
rwrist 6.65771
rhand -26.2974 7.45225
rfingers 7.12502
rthumb 0.258482 -22.5273
lclavicle 1.28465e-014 -2.34566e-014
lhumerus -38.0803 -47.2505 116.283
lradius 108.538
lwrist 33.495
lhand -28.1624 45.4632
lfingers 7.12502
lthumb -1.54274 75.4374
rfemur -27.1969 -8.5237 19.1364
rtibia 30.8384
rfoot -18.6589 -19.2888
rtoes -3.63897
lfemur -20.3701 -0.346842 -20.6828
ltibia 23.0029
lfoot -16.5642 -3.55347
ltoes -7.60776
382
root -2.12354 17.6876 -0.809909 369.348 103.626 357.383
lowerback -7.59774 -0.517918 7.21554
upperback -1.55316 -1.19372 -0.838372
thorax 2.47827 -0.528606 -5.04819
lowerneck -6.80499 -4.67683 -0.110234
upperneck 15.0404 -6.05222 -0.702125
head 5.63834 -2.92585 -0.606306
rclavicle 1.08835e-014 1.09332e-014
rhumerus -62.7807 17.0866 -112.807
rradius 101.698
rwrist 6.47354
rhand -26.588 7.19011
rfingers 7.12502
rthumb -0.0221447 -22.7896
lclavicle 1.08835e-014 1.09332e-014
lhumerus -37.2719 -48.6621 116.708
lradius 109.4
lwrist 33.7899
lhand -27.8404 45.4218
lfingers 7.12502
lthumb -1.2318 75.398
rfemur -26.063 -6.03469 19.3705
rtibia 25.898
rfoot -17.5127 -17.8787
rtoes -10.0448
lfemur -19.1649 1.43916 -20.3494
ltibia 20.9319
lfoot -15.9067 -5.0259
ltoes -6.01831
383
root -2.03194 17.7072 -0.818441 369.304 103.604 357.413
lowerback -7.64548 -0.592418 7.12678
upperback -1.62746 -1.28119 -0.989402
thorax 2.41346 -0.576692 -5.16454
lowerneck -6.71013 -4.57881 0.0134052
upperneck 15.2737 -5.94298 -0.601419
head 5.69476 -2.85351 -0.58855
rclavicle 2.39411e-014 -1.19271e-015
rhumerus -64.2203 17.1934 -112.146
rradius 103.223
rwrist 6.06638
rhand -26.5948 6.92075
rfingers 7.12502
rthumb -0.0287055 -23.059
lclavicle 2.39411e-014 -1.19271e-015
lhumerus -36.6317 -49.9165 117.084
lradius 110.228
lwrist 34.1029
lhand -27.6965 45.4315
lfingers 7.12502
lthumb -1.09278 75.4085
rfemur -24.5384 -3.39579 19.1191
rtibia 21.3908
rfoot -15.5623 -17.0568
rtoes -11.3666
lfemur -17.6529 3.17574 -20.3007
ltibia 18.8415
lfoot -15.2391 -6.40165
ltoes -4.61604
